<svg height="200px" width="200px" version="1.1" id="Layer_1" xmlns="http://www.w3.org/2000/svg" xmlns:xlink="http://www.w3.org/1999/xlink" viewBox="0 0 480 480" xml:space="preserve" fill="#000000" transform="matrix(1, 0, 0, 1, 0, 0)rotate(-45)"><g id="SVGRepo_bgCarrier" stroke-width="0"></g><g id="SVGRepo_tracerCarrier" stroke-linecap="round" stroke-linejoin="round"></g><g id="SVGRepo_iconCarrier"> <g> <g> <circle style="fill:#FF9100;" cx="240" cy="240" r="240"></circle> </g> <g> <path style="fill:#fd6b3f;" d="M240,480c66.274,0,126.274-26.862,169.706-70.294L70.294,70.294C26.862,113.726,0,173.726,0,240 C0,372.548,107.452,480,240,480z"></path> </g> <g> <path style="fill:#ffffff;" d="M328.203,248h151.594c0.088-2.662,0.203-5.317,0.203-8s-0.115-5.338-0.203-8H328.203 c2.239-65.623,31.862-124.404,77.758-165.276c-3.865-3.703-7.831-7.299-11.936-10.739C345.596,99.739,314.429,162.267,312.203,232 h-63.984V0.208C245.485,0.116,242.756,0,240,0c-2.61,0-5.192,0.114-7.781,0.197V232h-56.422 c-2.284-71.554-35.035-135.525-85.647-179.405c-4.219,3.378-8.343,6.868-12.323,10.519c48.277,40.98,79.664,101.29,81.971,168.887 H0.203C0.115,234.662,0,237.317,0,240s0.115,5.338,0.203,8h159.595c-2.307,67.597-33.693,127.906-81.971,168.887 c3.979,3.65,8.104,7.14,12.323,10.519c50.613-43.88,83.363-107.852,85.647-179.405h56.422v231.803 C234.808,479.886,237.39,480,240,480c2.756,0,5.485-0.116,8.219-0.208V248h63.984c2.226,69.733,33.393,132.261,81.822,176.015 c4.104-3.44,8.07-7.036,11.936-10.739C360.064,372.404,330.442,313.622,328.203,248z"></path> </g> <g> <g> <path style="fill:#e0e0e0;" d="M394.025,424.015l0.007-0.006c4.099-3.435,8.059-7.025,11.918-10.723 c0.003-0.003,0.007-0.007,0.011-0.01c-16.007-14.254-29.977-30.727-41.553-48.868l-35.923-35.923 C342.621,365.33,365.238,398.007,394.025,424.015z"></path> </g> <g> <path style="fill:#e0e0e0;" d="M248.219,248.219L232,232h-56.203c-0.756-23.692-4.917-46.523-11.896-68.099l-29.549-29.549 c15.161,29.475,24.248,62.563,25.445,97.648H0.203C0.115,234.662,0,237.317,0,240s0.115,5.338,0.203,8h159.595 c-2.307,67.597-33.693,127.906-81.971,168.887c3.977,3.648,8.099,7.136,12.316,10.513c0,0,0.005,0.003,0.007,0.005 c50.613-43.88,83.363-107.851,85.647-179.405h56.422v231.803C234.808,479.886,237.39,480,240,480 c2.756,0,5.485-0.116,8.219-0.208V248.219z"></path> </g> </g> </g> </g></svg>